<svg width="6" height="20" viewBox="0 0 6 20" fill="none" xmlns="http://www.w3.org/2000/svg">
<path d="M3.0001 5.20015C2.36358 5.20015 1.75313 4.94729 1.30304 4.4972C0.852955 4.04712 0.600098 3.43667 0.600098 2.80015C0.600098 2.16363 0.852955 1.55318 1.30304 1.10309C1.75313 0.653003 2.36358 0.400146 3.0001 0.400146C3.63662 0.400146 4.24707 0.653003 4.69715 1.10309C5.14724 1.55318 5.4001 2.16363 5.4001 2.80015C5.4001 3.43667 5.14724 4.04712 4.69715 4.4972C4.24707 4.94729 3.63662 5.20015 3.0001 5.20015ZM3.0001 12.4001C2.36358 12.4001 1.75313 12.1473 1.30304 11.6972C0.852955 11.2471 0.600098 10.6367 0.600098 10.0001C0.600098 9.36363 0.852955 8.75318 1.30304 8.30309C1.75313 7.853 2.36358 7.60015 3.0001 7.60015C3.63662 7.60015 4.24707 7.853 4.69715 8.30309C5.14724 8.75318 5.4001 9.36363 5.4001 10.0001C5.4001 10.6367 5.14724 11.2471 4.69715 11.6972C4.24707 12.1473 3.63662 12.4001 3.0001 12.4001ZM3.0001 19.6001C2.36358 19.6001 1.75313 19.3473 1.30304 18.8972C0.852955 18.4471 0.600098 17.8367 0.600098 17.2001C0.600098 16.5636 0.852955 15.9532 1.30304 15.5031C1.75313 15.053 2.36358 14.8001 3.0001 14.8001C3.63662 14.8001 4.24707 15.053 4.69715 15.5031C5.14724 15.9532 5.4001 16.5636 5.4001 17.2001C5.4001 17.8367 5.14724 18.4471 4.69715 18.8972C4.24707 19.3473 3.63662 19.6001 3.0001 19.6001Z" fill="white"/>
</svg>
