<svg width="18" height="18" viewBox="0 0 18 18" fill="none" xmlns="http://www.w3.org/2000/svg">
<g clip-path="url(#clip0_243_64)">
<path d="M10.805 5.50001H15.115L13.465 7.15001C13.4184 7.1963 13.3813 7.25132 13.356 7.31193C13.3306 7.37254 13.3175 7.43755 13.3172 7.50325C13.3168 7.63593 13.369 7.76336 13.4625 7.85751C13.5088 7.90413 13.5638 7.94118 13.6244 7.96653C13.685 7.99189 13.75 8.00506 13.8157 8.00529C13.9484 8.00576 14.0758 7.9535 14.17 7.86001L17 5.04001L16.645 4.68501L14.17 2.21501C14.0758 2.12152 13.9484 2.06927 13.8157 2.06974C13.6831 2.0702 13.556 2.12336 13.4625 2.21751C13.369 2.31167 13.3168 2.4391 13.3172 2.57178C13.3177 2.70446 13.3708 2.83152 13.465 2.92501L15.055 4.50001H10.5C10.4127 4.50054 10.3271 4.52389 10.2517 4.56775C10.1763 4.61161 10.1136 4.67444 10.07 4.75001L8.75 7.04501L9.33 8.04501L10.805 5.50001Z" fill="white"/>
<path d="M5.535 12.535H1.5C1.36739 12.535 1.24021 12.5877 1.14645 12.6814C1.05268 12.7752 1 12.9024 1 13.035C1 13.1676 1.05268 13.2948 1.14645 13.3886C1.24021 13.4823 1.36739 13.535 1.5 13.535H5.825C5.91226 13.5345 5.99786 13.5111 6.07329 13.4673C6.14873 13.4234 6.21137 13.3606 6.255 13.285L7.59 11L7 10L5.535 12.535Z" fill="white"/>
<path d="M14.17 10.085C14.0758 9.99153 13.9484 9.93927 13.8157 9.93974C13.6831 9.94021 13.556 9.99336 13.4625 10.0875C13.369 10.1817 13.3168 10.3091 13.3172 10.4418C13.3177 10.5745 13.3708 10.7015 13.465 10.795L15.215 12.545H10.805L6.255 4.76501C6.21137 4.68945 6.14873 4.62661 6.07329 4.58275C5.99786 4.53889 5.91226 4.51554 5.825 4.51501H1.5C1.36739 4.51501 1.24021 4.56769 1.14645 4.66146C1.05268 4.75523 1 4.88241 1 5.01501C1 5.14762 1.05268 5.2748 1.14645 5.36857C1.24021 5.46234 1.36739 5.51501 1.5 5.51501H5.535L10.085 13.29C10.1286 13.3656 10.1913 13.4284 10.2667 13.4723C10.3421 13.5161 10.4277 13.5395 10.515 13.54H14.95L13.45 15.04C13.4034 15.0863 13.3663 15.1413 13.341 15.2019C13.3156 15.2625 13.3025 15.3275 13.3022 15.3932C13.302 15.4589 13.3147 15.524 13.3396 15.5848C13.3646 15.6456 13.4012 15.7009 13.4475 15.7475C13.4938 15.7941 13.5488 15.8312 13.6094 15.8565C13.67 15.8819 13.735 15.8951 13.8007 15.8953C13.8664 15.8955 13.9315 15.8828 13.9923 15.8579C14.0531 15.833 14.1084 15.7963 14.155 15.75L16.63 13.28L16.985 12.925L14.17 10.085Z" fill="white"/>
</g>
<defs>
<clipPath id="clip0_243_64">
<rect width="18" height="18" fill="white"/>
</clipPath>
</defs>
</svg>
