<svg width="22" height="16" viewBox="0 0 22 16" fill="none" xmlns="http://www.w3.org/2000/svg">
<path d="M21.7692 3.05355L16.6742 0.337945L16.87 6.10813L21.7692 3.05355ZM1 12.9467C0.95552 13.4447 0.955697 13.4447 0.955912 13.4448C0.956037 13.4448 0.956293 13.4448 0.956542 13.4448C0.957042 13.4449 0.957699 13.4449 0.958512 13.445C0.96014 13.4451 0.962395 13.4453 0.965266 13.4456C0.97101 13.446 0.979222 13.4467 0.989823 13.4476C1.01102 13.4493 1.04179 13.4516 1.08148 13.4544C1.16086 13.46 1.27599 13.4674 1.42179 13.4745C1.71326 13.4887 2.12799 13.5023 2.62508 13.4998C3.6166 13.4949 4.94813 13.4262 6.2873 13.1671C7.61913 12.9094 9.00314 12.455 10.0643 11.6494C11.1467 10.8277 11.8846 9.64371 11.8846 8.00012H10.8846C10.8846 9.29357 10.3244 10.1964 9.45969 10.8529C8.57378 11.5254 7.36164 11.9406 6.09731 12.1853C4.84033 12.4285 3.57571 12.4951 2.62012 12.4998C2.14365 12.5022 1.74708 12.4892 1.47064 12.4757C1.33248 12.4689 1.22451 12.462 1.15177 12.4569C1.1154 12.4544 1.08785 12.4522 1.06976 12.4508C1.06071 12.4501 1.05403 12.4495 1.04979 12.4491C1.04767 12.449 1.04616 12.4488 1.04527 12.4488C1.04483 12.4487 1.04454 12.4487 1.04441 12.4487C1.04434 12.4487 1.04436 12.4487 1.04432 12.4487C1.04438 12.4487 1.04448 12.4487 1 12.9467ZM11.8846 8.00012C11.8846 6.59575 12.5461 5.64506 13.5535 4.9739C14.585 4.28679 15.972 3.90265 17.3452 3.70075L17.1998 2.71138C15.7671 2.92201 14.2102 3.33488 12.9991 4.14166C11.7641 4.96437 10.8846 6.20445 10.8846 8.00012H11.8846Z" fill="#808080"/>
<path d="M21.7692 12.9467L16.6742 15.6623L16.87 9.89211L21.7692 12.9467ZM1 3.05354C0.95552 2.55553 0.955697 2.55551 0.955912 2.55549C0.956037 2.55548 0.956293 2.55546 0.956542 2.55544C0.957042 2.55539 0.957699 2.55534 0.958512 2.55526C0.96014 2.55512 0.962395 2.55493 0.965266 2.55468C0.97101 2.5542 0.979222 2.55351 0.989823 2.55266C1.01102 2.55096 1.04179 2.5486 1.08148 2.5458C1.16086 2.54021 1.27599 2.53289 1.42179 2.52576C1.71326 2.51151 2.12799 2.49795 2.62508 2.50041C3.6166 2.50533 4.94813 2.57402 6.2873 2.83317C7.61913 3.09089 9.00314 3.54523 10.0643 4.35086C11.1467 5.17256 11.8846 6.35653 11.8846 8.00012H10.8846C10.8846 6.70668 10.3244 5.80381 9.45969 5.14734C8.57378 4.47479 7.36164 4.05961 6.09731 3.81495C4.84033 3.57171 3.57571 3.50514 2.62012 3.5004C2.14365 3.49804 1.74708 3.51105 1.47064 3.52457C1.33248 3.53133 1.22451 3.5382 1.15177 3.54333C1.1154 3.54589 1.08785 3.54801 1.06976 3.54946C1.06071 3.55019 1.05403 3.55075 1.04979 3.55111C1.04767 3.55129 1.04616 3.55142 1.04527 3.55149C1.04483 3.55153 1.04454 3.55156 1.04441 3.55157C1.04434 3.55158 1.04436 3.55157 1.04432 3.55158C1.04438 3.55157 1.04448 3.55156 1 3.05354ZM11.8846 8.00012C11.8846 9.40449 12.5461 10.3552 13.5535 11.0263C14.585 11.7135 15.972 12.0976 17.3452 12.2995L17.1998 13.2889C15.7671 13.0782 14.2102 12.6654 12.9991 11.8586C11.7641 11.0359 10.8846 9.79579 10.8846 8.00012H11.8846Z" fill="#808080"/>
</svg>
