<svg width="23" height="19" viewBox="0 0 23 19" fill="none" xmlns="http://www.w3.org/2000/svg">
<path fill-rule="evenodd" clip-rule="evenodd" d="M-4.76837e-05 2.50044C-0.000225067 1.11973 1.11892 0.000298676 2.49963 0.000122091C3.88034 -5.44931e-05 4.99977 1.11909 4.99995 2.4998L5.00174 16.4998C5.00192 17.8805 3.88277 18.9999 2.50206 19.0001C1.12135 19.0003 0.00191879 17.8812 0.00174141 16.5004L-4.76837e-05 2.50044ZM6.70368 12.4026C4.44459 11.1269 4.4446 7.87314 6.70368 6.59747L17.2149 0.661952C19.437 -0.592816 22.1873 1.01262 22.1873 3.56449V15.4355C22.1873 17.9874 19.437 19.5928 17.2149 18.3381L6.70368 12.4026Z" fill="#808080"/>
</svg>
