<svg width="22" height="23" viewBox="0 0 22 23" fill="none" xmlns="http://www.w3.org/2000/svg">
<path fill-rule="evenodd" clip-rule="evenodd" d="M22 11.917C22 14.8344 20.8411 17.6323 18.7782 19.6952C16.7153 21.7581 13.9174 22.917 11 22.917C8.08262 22.917 5.28473 21.7581 3.22183 19.6952C1.15893 17.6323 0 14.8344 0 11.917C0 8.99961 1.15893 6.20172 3.22183 4.13882C5.28473 2.07592 8.08262 0.916992 11 0.916992C13.9174 0.916992 16.7153 2.07592 18.7782 4.13882C20.8411 6.20172 22 8.99961 22 11.917ZM6.875 9.16699C6.875 8.80232 7.01987 8.45258 7.27773 8.19472C7.53559 7.93686 7.88533 7.79199 8.25 7.79199C8.61467 7.79199 8.96441 7.93686 9.22227 8.19472C9.48013 8.45258 9.625 8.80232 9.625 9.16699V14.667C9.625 15.0317 9.48013 15.3814 9.22227 15.6393C8.96441 15.8971 8.61467 16.042 8.25 16.042C7.88533 16.042 7.53559 15.8971 7.27773 15.6393C7.01987 15.3814 6.875 15.0317 6.875 14.667V9.16699ZM13.75 7.79199C13.3853 7.79199 13.0356 7.93686 12.7777 8.19472C12.5199 8.45258 12.375 8.80232 12.375 9.16699V14.667C12.375 15.0317 12.5199 15.3814 12.7777 15.6393C13.0356 15.8971 13.3853 16.042 13.75 16.042C14.1147 16.042 14.4644 15.8971 14.7223 15.6393C14.9801 15.3814 15.125 15.0317 15.125 14.667V9.16699C15.125 8.80232 14.9801 8.45258 14.7223 8.19472C14.4644 7.93686 14.1147 7.79199 13.75 7.79199Z" fill="white"/>
</svg>
