<svg width="40" height="29" viewBox="-1 -1 40 30" fill="white" stroke="white" stroke-width="2px" xmlns="http://www.w3.org/2000/svg">
<path fill-rule="evenodd" clip-rule="evenodd" d="M2.50266 2.60273C4.04038 1.06547 6.12571 0.201879 8.30006 0.201879C10.4744 0.201879 12.5597 1.06547 14.0975 2.60273L16.5001 5.00328L18.9027 2.60273C19.6591 1.81954 20.5639 1.19485 21.5643 0.765096C22.5648 0.335343 23.6408 0.109136 24.7296 0.0996748C25.8184 0.0902135 26.8981 0.297688 27.9059 0.709991C28.9136 1.12229 29.8292 1.73117 30.5991 2.50109C31.369 3.27101 31.9779 4.18655 32.3902 5.1943C32.8025 6.20205 33.01 7.28183 33.0005 8.37062C32.991 9.45941 32.7648 10.5354 32.3351 11.5358C31.9053 12.5363 31.2806 13.4411 30.4975 14.1975L16.5001 28.197L2.50266 14.1975C0.965393 12.6598 0.101807 10.5745 0.101807 8.40013C0.101807 6.22578 0.965393 4.14046 2.50266 2.60273Z" fill="none"/>
</svg>
