<svg width="16" height="18" viewBox="0 0 16 18" fill="none" xmlns="http://www.w3.org/2000/svg">
<path d="M2.375 3.375H13.7218L11.7046 1.35787L12.5 0.5625L15.875 3.9375L12.5 7.3125L11.7046 6.51713L13.7218 4.5H2.375V8.4375H1.25V4.5C1.2503 4.20172 1.36892 3.91575 1.57983 3.70483C1.79075 3.49392 2.07672 3.3753 2.375 3.375ZM4.29537 11.4829L2.27825 13.5H13.625V9.5625H14.75V13.5C14.7497 13.7983 14.6311 14.0843 14.4202 14.2952C14.2093 14.5061 13.9233 14.6247 13.625 14.625H2.27825L4.29537 16.6421L3.5 17.4375L0.125 14.0625L3.5 10.6875L4.29537 11.4829Z" fill="white"/>
</svg>
