<svg width="24" height="20" viewBox="0 0 24 20" fill="none" xmlns="http://www.w3.org/2000/svg">
<path d="M20.3447 6.9919L17.5083 12.3113L23.1366 11.8919L20.3447 6.9919ZM2.60969 16.5307C10.118 16.6844 14.5321 16.5034 17.1106 15.7966C18.4109 15.4401 19.3193 14.9313 19.9155 14.1942C20.5144 13.4537 20.7319 12.5644 20.8103 11.5961L19.839 11.5862C19.7682 12.4594 19.5836 13.0826 19.1929 13.5657C18.7995 14.0521 18.131 14.4778 16.9324 14.8063C14.5133 15.4695 10.2422 15.6608 2.7021 15.5063L2.60969 16.5307Z" fill="#808080"/>
<path d="M3.65528 13.0053L6.49175 7.68592L0.863402 8.10529L3.65528 13.0053ZM21.3903 3.46653C13.882 3.31276 9.46793 3.49375 6.88936 4.20061C5.58907 4.55706 4.68065 5.06587 4.08448 5.80302C3.48564 6.54348 3.26813 7.43284 3.18968 8.40107L4.16101 8.41102C4.23175 7.53784 4.41638 6.91456 4.80708 6.43147C5.20046 5.94506 5.86901 5.51942 7.06755 5.19087C9.48667 4.52771 13.7578 4.33643 21.2979 4.49086L21.3903 3.46653Z" fill="#808080"/>
</svg>
