<svg width="22" height="23" viewBox="0 0 22 23" fill="none" xmlns="http://www.w3.org/2000/svg">
<path d="M1.49384 6.96487H16.4322C17.2538 6.96487 17.9261 7.69216 17.9261 8.58108C17.9261 9.47 17.2538 10.1973 16.4322 10.1973H1.49384C0.672228 10.1973 0 9.47 0 8.58108C0 7.69216 0.672228 6.96487 1.49384 6.96487ZM1.49384 0.5H16.4322C17.2538 0.5 17.9261 1.2273 17.9261 2.11622C17.9261 3.00514 17.2538 3.73243 16.4322 3.73243H1.49384C0.672228 3.73243 0 3.00514 0 2.11622C0 1.2273 0.672228 0.5 1.49384 0.5ZM1.49384 13.4297H10.4569C11.2785 13.4297 11.9507 14.157 11.9507 15.0459C11.9507 15.9349 11.2785 16.6622 10.4569 16.6622H1.49384C0.672228 16.6622 0 15.9349 0 15.0459C0 14.157 0.672228 13.4297 1.49384 13.4297ZM14.9384 14.852V21.6886C14.9384 22.3189 15.5658 22.7068 16.0737 22.3836L21.347 18.9572C21.825 18.6501 21.825 17.8905 21.347 17.5672L16.0737 14.1409C15.9584 14.0696 15.8279 14.0323 15.6951 14.0327C15.5623 14.0331 15.432 14.0712 15.317 14.1432C15.2021 14.2152 15.1067 14.3185 15.0402 14.4429C14.9738 14.5673 14.9387 14.7083 14.9384 14.852Z" fill="white"/>
</svg>
